<?xml version="1.0" standalone="no"?>
<!DOCTYPE svg PUBLIC "-//W3C//DTD SVG 20010904//EN"
 "http://www.w3.org/TR/2001/REC-SVG-20010904/DTD/svg10.dtd">
<svg version="1.0" xmlns="http://www.w3.org/2000/svg"
 width="96.000000pt" height="96.000000pt" viewBox="0 0 96.000000 96.000000"
 preserveAspectRatio="xMidYMid meet">
<metadata>
Created by potrace 1.14, written by Peter Selinger 2001-2017
</metadata>
<g transform="translate(0.000000,96.000000) scale(0.100000,-0.100000)"
fill="#000000" stroke="none">
<path d="M177 946 c-136 -51 -205 -185 -162 -316 49 -146 227 -213 360 -135
168 98 165 337 -5 429 -61 33 -139 42 -193 22z m151 -75 c69 -36 102 -88 102
-162 0 -168 -206 -243 -317 -116 -75 86 -48 222 55 277 47 25 113 25 160 1z"/>
<path d="M191 833 c-99 -52 -105 -178 -12 -240 89 -60 211 8 211 117 0 99
-113 168 -199 123z m117 -57 c2 -3 1 -9 -3 -15 -4 -8 -12 -8 -26 -1 -20 11
-59 -2 -59 -20 0 -6 9 -10 20 -10 31 0 24 -20 -7 -21 l-28 -2 28 -4 c32 -5 37
-23 6 -23 -37 0 -14 -25 24 -26 47 -1 57 -11 23 -23 -32 -13 -70 0 -88 29 -7
11 -18 20 -25 20 -17 0 -17 20 0 21 10 0 10 2 0 6 -15 5 -17 23 -4 23 5 0 23
14 41 31 26 26 36 30 62 25 17 -3 33 -8 36 -10z"/>
<path d="M572 890 c-31 -14 -43 -25 -40 -37 4 -21 16 -20 78 2 101 37 222 -17
265 -117 15 -38 20 -123 9 -152 -5 -13 -9 -14 -21 -5 -25 21 -36 -3 -23 -50 9
-34 15 -41 35 -41 59 0 97 37 60 58 -13 7 -13 14 -4 41 15 43 6 128 -20 179
-26 51 -103 119 -150 132 -58 16 -141 12 -189 -10z"/>
<path d="M591 465 c-52 -29 -100 -64 -107 -77 -16 -29 -18 -207 -3 -241 13
-29 198 -137 235 -137 32 0 220 104 234 130 5 10 10 69 10 130 0 102 -2 113
-22 133 -36 36 -193 117 -225 116 -15 0 -70 -24 -122 -54z m210 -75 l69 -41 0
-84 0 -84 -69 -41 c-38 -22 -75 -40 -82 -40 -17 0 -142 69 -151 84 -4 6 -8 43
-8 81 0 39 4 75 8 81 10 14 134 84 150 84 8 0 45 -18 83 -40z"/>
<path d="M667 355 l-39 -22 45 -25 45 -26 43 26 42 25 -39 23 c-46 28 -48 28
-97 -1z"/>
<path d="M612 247 c3 -37 7 -43 53 -70 l49 -29 53 29 c49 26 53 31 53 66 0 20
-3 37 -7 37 -3 0 -26 -12 -50 -26 l-44 -25 -55 30 -55 30 3 -42z"/>
<path d="M40 438 c-56 -92 -33 -227 53 -309 57 -56 110 -73 207 -66 45 3 80 1
80 -4 0 -5 9 -9 20 -9 14 0 22 11 30 41 13 47 12 50 -40 65 -45 13 -65 2 -50
-27 9 -15 4 -19 -35 -25 -165 -24 -296 146 -231 300 28 66 1 92 -34 34z"/>
</g>
</svg>
