<svg width="53" height="52" viewBox="0 0 53 52" fill="none" xmlns="http://www.w3.org/2000/svg">
<path d="M38.0443 12.7188H30.0443C29.6906 12.7188 29.3515 12.8592 29.1015 13.1093C28.8514 13.3593 28.7109 13.6985 28.7109 14.0521C28.7109 14.4057 28.8514 14.7448 29.1015 14.9949C29.3515 15.2449 29.6906 15.3854 30.0443 15.3854H36.7109V22.0521C36.7109 22.4057 36.8514 22.7448 37.1015 22.9949C37.3515 23.2449 37.6906 23.3854 38.0443 23.3854C38.3979 23.3854 38.737 23.2449 38.9871 22.9949C39.2371 22.7448 39.3776 22.4057 39.3776 22.0521V14.0521C39.3776 13.6985 39.2371 13.3593 38.9871 13.1093C38.737 12.8592 38.3979 12.7188 38.0443 12.7188ZM38.0443 28.7187C37.6906 28.7187 37.3515 28.8592 37.1015 29.1093C36.8514 29.3593 36.7109 29.6985 36.7109 30.0521V36.7187H30.0443C29.6906 36.7187 29.3515 36.8592 29.1015 37.1093C28.8514 37.3593 28.7109 37.6985 28.7109 38.0521C28.7109 38.4057 28.8514 38.7448 29.1015 38.9949C29.3515 39.2449 29.6906 39.3854 30.0443 39.3854H38.0443C38.3979 39.3854 38.737 39.2449 38.9871 38.9949C39.2371 38.7448 39.3776 38.4057 39.3776 38.0521V30.0521C39.3776 29.6985 39.2371 29.3593 38.9871 29.1093C38.737 28.8592 38.3979 28.7187 38.0443 28.7187ZM26.0443 18.0521C24.9834 18.0521 23.966 18.4735 23.2158 19.2237C22.4657 19.9738 22.0443 20.9912 22.0443 22.0521V23.3854C21.337 23.3854 20.6587 23.6664 20.1587 24.1665C19.6586 24.6666 19.3776 25.3448 19.3776 26.0521V31.3854C19.3776 32.0927 19.6586 32.7709 20.1587 33.271C20.6587 33.7711 21.337 34.0521 22.0443 34.0521H30.0443C30.7515 34.0521 31.4298 33.7711 31.9299 33.271C32.43 32.7709 32.7109 32.0927 32.7109 31.3854V26.0521C32.7109 25.3448 32.43 24.6666 31.9299 24.1665C31.4298 23.6664 30.7515 23.3854 30.0443 23.3854V22.0521C30.0443 20.9912 29.6228 19.9738 28.8727 19.2237C28.1226 18.4735 27.1051 18.0521 26.0443 18.0521ZM24.7109 22.0521C24.7109 21.6985 24.8514 21.3593 25.1015 21.1093C25.3515 20.8592 25.6906 20.7187 26.0443 20.7187C26.3979 20.7187 26.737 20.8592 26.9871 21.1093C27.2371 21.3593 27.3776 21.6985 27.3776 22.0521V23.3854H24.7109V22.0521ZM30.0443 31.3854H22.0443V26.0521H30.0443V31.3854ZM14.0443 23.3854C14.3979 23.3854 14.737 23.2449 14.9871 22.9949C15.2371 22.7448 15.3776 22.4057 15.3776 22.0521V15.3854H22.0443C22.3979 15.3854 22.737 15.2449 22.9871 14.9949C23.2371 14.7448 23.3776 14.4057 23.3776 14.0521C23.3776 13.6985 23.2371 13.3593 22.9871 13.1093C22.737 12.8592 22.3979 12.7188 22.0443 12.7188H14.0443C13.6906 12.7188 13.3515 12.8592 13.1015 13.1093C12.8514 13.3593 12.7109 13.6985 12.7109 14.0521V22.0521C12.7109 22.4057 12.8514 22.7448 13.1015 22.9949C13.3515 23.2449 13.6906 23.3854 14.0443 23.3854ZM22.0443 36.7187H15.3776V30.0521C15.3776 29.6985 15.2371 29.3593 14.9871 29.1093C14.737 28.8592 14.3979 28.7187 14.0443 28.7187C13.6906 28.7187 13.3515 28.8592 13.1015 29.1093C12.8514 29.3593 12.7109 29.6985 12.7109 30.0521V38.0521C12.7109 38.4057 12.8514 38.7448 13.1015 38.9949C13.3515 39.2449 13.6906 39.3854 14.0443 39.3854H22.0443C22.3979 39.3854 22.737 39.2449 22.9871 38.9949C23.2371 38.7448 23.3776 38.4057 23.3776 38.0521C23.3776 37.6985 23.2371 37.3593 22.9871 37.1093C22.737 36.8592 22.3979 36.7187 22.0443 36.7187Z" fill="currentColor"/>
</svg>
