<svg width="53" height="52" viewBox="0 0 53 52" fill="none" xmlns="http://www.w3.org/2000/svg">
<path d="M24.625 34.8047H27.375V38.9297H24.625V34.8047ZM31.5 38.9297V41.6797H20.5V38.9297H31.5ZM37 34.8047H15C13.9063 34.8036 12.8577 34.3686 12.0844 33.5953C11.311 32.8219 10.8761 31.7734 10.875 30.6797V15.5547C10.8761 14.461 11.311 13.4124 12.0844 12.6391C12.8577 11.8657 13.9063 11.4308 15 11.4297H37C38.0937 11.4308 39.1423 11.8657 39.9156 12.6391C40.689 13.4124 41.1239 14.461 41.125 15.5547V30.6797C41.1239 31.7734 40.689 32.8219 39.9156 33.5953C39.1423 34.3686 38.0937 34.8036 37 34.8047ZM15 14.1797C14.6353 14.1797 14.2856 14.3246 14.0277 14.5824C13.7699 14.8403 13.625 15.19 13.625 15.5547V30.6797C13.625 31.0444 13.7699 31.3941 14.0277 31.652C14.2856 31.9098 14.6353 32.0547 15 32.0547H37C37.3647 32.0547 37.7144 31.9098 37.9723 31.652C38.2301 31.3941 38.375 31.0444 38.375 30.6797V15.5547C38.375 15.19 38.2301 14.8403 37.9723 14.5824C37.7144 14.3246 37.3647 14.1797 37 14.1797H15Z" fill="currentColor"/>
<path d="M31.5 30.6797L28.8683 21.9072L27.375 27.9297L25.5751 23.8047H25.12L23.25 29.3047L21.6591 23.7126L20.9249 25.1797H16.375V23.8047H20.0751L21.875 19.6797L23.3435 24.7851L24.13 22.4297H26.4249L27.0945 23.7676L28.75 15.5547L31.5 26.5547L32.38 23.8047H35.625V25.1797H33.37L31.5 30.6797Z" fill="currentColor"/>
</svg>
