<svg width="53" height="52" viewBox="0 0 53 52" fill="none" xmlns="http://www.w3.org/2000/svg">
<path d="M18.5469 19.0547C17.7557 19.0547 16.9824 18.8201 16.3246 18.3806C15.6668 17.941 15.1541 17.3163 14.8514 16.5854C14.5486 15.8545 14.4694 15.0503 14.6237 14.2743C14.7781 13.4984 15.159 12.7857 15.7184 12.2263C16.2779 11.6669 16.9906 11.2859 17.7665 11.1315C18.5424 10.9772 19.3467 11.0564 20.0776 11.3592C20.8085 11.6619 21.4332 12.1746 21.8728 12.8324C22.3123 13.4902 22.5469 14.2636 22.5469 15.0547C22.5469 16.1156 22.1254 17.133 21.3753 17.8831C20.6252 18.6333 19.6077 19.0547 18.5469 19.0547ZM18.5469 13.0547C18.1513 13.0547 17.7646 13.172 17.4357 13.3918C17.1068 13.6115 16.8505 13.9239 16.6991 14.2893C16.5477 14.6548 16.5081 15.0569 16.5853 15.4449C16.6625 15.8328 16.853 16.1892 17.1327 16.4689C17.4124 16.7486 17.7687 16.9391 18.1567 17.0163C18.5447 17.0934 18.9468 17.0538 19.3122 16.9024C19.6777 16.7511 19.9901 16.4947 20.2098 16.1658C20.4296 15.8369 20.5469 15.4503 20.5469 15.0547C20.5469 14.5243 20.3362 14.0155 19.9611 13.6405C19.586 13.2654 19.0773 13.0547 18.5469 13.0547ZM34.5469 19.0547C33.7558 19.0547 32.9824 18.8201 32.3246 18.3806C31.6668 17.941 31.1541 17.3163 30.8514 16.5854C30.5486 15.8545 30.4694 15.0503 30.6237 14.2743C30.7781 13.4984 31.159 12.7857 31.7184 12.2263C32.2779 11.6669 32.9906 11.2859 33.7665 11.1315C34.5424 10.9772 35.3467 11.0564 36.0776 11.3592C36.8085 11.6619 37.4332 12.1746 37.8728 12.8324C38.3123 13.4902 38.5469 14.2636 38.5469 15.0547C38.5469 16.1156 38.1254 17.133 37.3753 17.8831C36.6252 18.6333 35.6077 19.0547 34.5469 19.0547ZM34.5469 13.0547C34.1513 13.0547 33.7646 13.172 33.4357 13.3918C33.1068 13.6115 32.8505 13.9239 32.6991 14.2893C32.5477 14.6548 32.5081 15.0569 32.5853 15.4449C32.6625 15.8328 32.853 16.1892 33.1327 16.4689C33.4124 16.7486 33.7687 16.9391 34.1567 17.0163C34.5447 17.0934 34.9468 17.0538 35.3122 16.9024C35.6777 16.7511 35.9901 16.4947 36.2098 16.1658C36.4296 15.8369 36.5469 15.4503 36.5469 15.0547C36.5469 14.5243 36.3362 14.0155 35.9611 13.6405C35.586 13.2654 35.0773 13.0547 34.5469 13.0547ZM36.5469 40.0547H32.5469C32.0164 40.0547 31.5077 39.844 31.1327 39.4689C30.7576 39.0938 30.5469 38.5851 30.5469 38.0547V31.0547H32.5469V38.0547H36.5469V29.0547H38.5469V23.0547C38.5469 22.7895 38.4415 22.5351 38.254 22.3476C38.0664 22.16 37.8121 22.0547 37.5469 22.0547H31.1269L26.5469 30.0547L21.9669 22.0547H15.5469C15.2817 22.0547 15.0273 22.16 14.8398 22.3476C14.6522 22.5351 14.5469 22.7895 14.5469 23.0547V29.0547H16.5469V38.0547H20.5469V31.0547H22.5469V38.0547C22.5469 38.5851 22.3362 39.0938 21.9611 39.4689C21.586 39.844 21.0773 40.0547 20.5469 40.0547H16.5469C16.0164 40.0547 15.5077 39.844 15.1327 39.4689C14.7576 39.0938 14.5469 38.5851 14.5469 38.0547V31.0547C14.0164 31.0547 13.5077 30.844 13.1327 30.4689C12.7576 30.0938 12.5469 29.5851 12.5469 29.0547V23.0547C12.5469 22.259 12.8629 21.496 13.4256 20.9334C13.9882 20.3708 14.7512 20.0547 15.5469 20.0547H23.1269L26.5469 26.0547L29.9669 20.0547H37.5469C38.3425 20.0547 39.1056 20.3708 39.6682 20.9334C40.2308 21.496 40.5469 22.259 40.5469 23.0547V29.0547C40.5469 29.5851 40.3362 30.0938 39.9611 30.4689C39.586 30.844 39.0773 31.0547 38.5469 31.0547V38.0547C38.5469 38.5851 38.3362 39.0938 37.9611 39.4689C37.586 39.844 37.0773 40.0547 36.5469 40.0547Z" fill="currentColor"/>
</svg>
