<svg width="53" height="52" viewBox="0 0 53 52" fill="none" xmlns="http://www.w3.org/2000/svg">
<path d="M37.5921 15.0821C37.5361 14.2607 37.1703 13.4912 36.5686 12.9292C35.9669 12.3672 35.1743 12.0546 34.3509 12.0547H17.7483L17.526 12.0619C16.7046 12.1183 15.9352 12.4844 15.3735 13.0864C14.8117 13.6883 14.4995 14.4811 14.5 15.3045V37.679L14.5072 37.9013C14.5632 38.7228 14.929 39.4923 15.5307 40.0543C16.1324 40.6163 16.925 40.9289 17.7483 40.9288H28.6743L26.5087 38.7632H17.7483L17.6011 38.7531C17.3419 38.7175 17.1043 38.5893 16.9323 38.3921C16.7603 38.1949 16.6656 37.9421 16.6656 37.6805V15.3045L16.6757 15.1572C16.7112 14.898 16.8395 14.6604 17.0367 14.4884C17.2339 14.3165 17.4867 14.2217 17.7483 14.2217H34.3509L34.4982 14.2318C34.7574 14.2674 34.995 14.3956 35.167 14.5928C35.339 14.79 35.4337 15.0428 35.4337 15.3045V32.0038L37.107 30.3306C37.261 30.1766 37.4246 30.0418 37.5978 29.9263V15.303L37.5921 15.0821ZM32.2402 40.9273H32.1305C31.8623 40.9139 31.6086 40.8012 31.4188 40.6112L27.8095 36.999C27.6066 36.7957 27.4927 36.5201 27.493 36.2328C27.4933 35.9456 27.6076 35.6702 27.811 35.4673C28.0143 35.2643 28.2899 35.1505 28.5771 35.1507C28.8644 35.151 29.1398 35.2654 29.3427 35.4687L32.1854 38.3142L38.6387 31.8609C38.7387 31.7575 38.8582 31.6751 38.9903 31.6184C39.1225 31.5617 39.2646 31.5319 39.4083 31.5307C39.5521 31.5295 39.6947 31.557 39.8277 31.6115C39.9607 31.666 40.0816 31.7465 40.1832 31.8482C40.2848 31.9499 40.3652 32.0708 40.4196 32.2039C40.4739 32.337 40.5013 32.4796 40.5 32.6234C40.4986 32.7672 40.4687 32.9092 40.4119 33.0413C40.3551 33.1734 40.2725 33.2928 40.1691 33.3926L32.9506 40.6112C32.7611 40.8009 32.508 40.9135 32.2402 40.9273ZM28.7061 32.9884C28.6185 32.9844 28.5308 32.9844 28.4433 32.9884H24.9596C24.6725 32.9884 24.3971 32.8743 24.194 32.6713C23.9909 32.4682 23.8769 32.1928 23.8769 31.9056C23.8769 31.6185 23.9909 31.3431 24.194 31.14C24.3971 30.9369 24.6725 30.8229 24.9596 30.8229H32.1839C32.4711 30.8229 32.7465 30.9369 32.9496 31.14C33.1526 31.3431 33.2667 31.6185 33.2667 31.9056C33.2667 32.1928 33.1526 32.4682 32.9496 32.6713C32.7465 32.8743 32.4711 32.9884 32.1839 32.9884H28.7061ZM21.7185 20.3589C21.7185 20.7418 21.5664 21.109 21.2957 21.3797C21.0249 21.6505 20.6577 21.8026 20.2748 21.8026C19.8919 21.8026 19.5247 21.6505 19.254 21.3797C18.9832 21.109 18.8311 20.7418 18.8311 20.3589C18.8311 19.976 18.9832 19.6088 19.254 19.338C19.5247 19.0673 19.8919 18.9152 20.2748 18.9152C20.6577 18.9152 21.0249 19.0673 21.2957 19.338C21.5664 19.6088 21.7185 19.976 21.7185 20.3589ZM23.8783 20.356C23.8783 20.0688 23.9924 19.7934 24.1954 19.5904C24.3985 19.3873 24.6739 19.2732 24.9611 19.2732H32.1854C32.4726 19.2732 32.748 19.3873 32.951 19.5904C33.1541 19.7934 33.2682 20.0688 33.2682 20.356C33.2682 20.6432 33.1541 20.9186 32.951 21.1216C32.748 21.3247 32.4726 21.4388 32.1854 21.4388H24.9611C24.6739 21.4388 24.3985 21.3247 24.1954 21.1216C23.9924 20.9186 23.8783 20.6432 23.8783 20.356ZM24.9611 25.048C24.6739 25.048 24.3985 25.1621 24.1954 25.3652C23.9924 25.5682 23.8783 25.8436 23.8783 26.1308C23.8783 26.418 23.9924 26.6934 24.1954 26.8965C24.3985 27.0995 24.6739 27.2136 24.9611 27.2136H32.1854C32.3276 27.2136 32.4684 27.1856 32.5997 27.1312C32.7311 27.0768 32.8505 26.997 32.951 26.8965C33.0516 26.7959 33.1313 26.6765 33.1857 26.5452C33.2402 26.4138 33.2682 26.273 33.2682 26.1308C33.2682 25.9886 33.2402 25.8478 33.1857 25.7164C33.1313 25.5851 33.0516 25.4657 32.951 25.3652C32.8505 25.2646 32.7311 25.1849 32.5997 25.1305C32.4684 25.076 32.3276 25.048 32.1854 25.048H24.9611ZM20.2748 27.5745C20.6577 27.5745 21.0249 27.4224 21.2957 27.1517C21.5664 26.8809 21.7185 26.5137 21.7185 26.1308C21.7185 25.7479 21.5664 25.3807 21.2957 25.11C21.0249 24.8392 20.6577 24.6871 20.2748 24.6871C19.8919 24.6871 19.5247 24.8392 19.254 25.11C18.9832 25.3807 18.8311 25.7479 18.8311 26.1308C18.8311 26.5137 18.9832 26.8809 19.254 27.1517C19.5247 27.4224 19.8919 27.5745 20.2748 27.5745ZM21.7185 31.9027C21.7185 32.2856 21.5664 32.6529 21.2957 32.9236C21.0249 33.1943 20.6577 33.3464 20.2748 33.3464C19.8919 33.3464 19.5247 33.1943 19.254 32.9236C18.9832 32.6529 18.8311 32.2856 18.8311 31.9027C18.8311 31.5199 18.9832 31.1526 19.254 30.8819C19.5247 30.6111 19.8919 30.459 20.2748 30.459C20.6577 30.459 21.0249 30.6111 21.2957 30.8819C21.5664 31.1526 21.7185 31.5199 21.7185 31.9027Z" fill="currentColor"/>
</svg>
