<?xml version="1.0" encoding="utf-8"?>
<!-- Generator: Adobe Illustrator 26.0.0, SVG Export Plug-In . SVG Version: 6.00 Build 0)  -->
<svg version="1.2" baseProfile="tiny" id="Layer_1" xmlns="http://www.w3.org/2000/svg" xmlns:xlink="http://www.w3.org/1999/xlink"
	 x="0px" y="0px" viewBox="0 0 80 80" overflow="visible" xml:space="preserve">
<g>
	<g>
		<path fill-rule="evenodd" fill="#EE7300" d="M67.64,57.91c0,5.64,0.8,5.11-3.69,7.51l-3.56,2.07c-3.3,1.5-3.04,2.76-5.65,1.33
			l-6.25-3.59c-0.33-0.18-0.61-0.29-0.9-0.46c-1.49-0.89-2.46-1.14-2.47-3.01l0-8.42c0-2.57,0.33-2.45,2.03-3.44l3.58-1.99
			c1.13-0.61,2.34-1.31,3.53-2.01c0.61-0.36,1.16-0.75,1.89-0.94c0.74-0.2,1.46,0.39,1.91,0.65l5.37,3.01
			c2.27,1.33,4.24,1.8,4.24,3.98L67.64,57.91L67.64,57.91z M74.2,52.25c-0.03-0.92-0.06-1.74-0.12-2.39c-0.05-0.6,0-0.36-0.16-0.83
			c-0.09-0.27-0.14-0.47-0.25-0.74c-0.32-0.83-1.06-1.68-1.79-2.16c-1.96-1.31-3.42-1.91-4.92-2.84l-4.31-2.47
			c-0.24-0.13-0.43-0.22-0.64-0.35c-0.43-0.25-0.83-0.51-1.24-0.73c-0.46-0.25-0.82-0.41-1.28-0.69c-2.43-1.47-3.98-1.25-6.51,0.11
			c-0.33,0.18-0.32,0.16-0.63,0.36L41.2,45.87c-1.15,0.67-2.34,2.2-2.53,3.4c-0.1,0.65-0.14,1.13-0.14,1.84
			c0,3.8-0.14,9.7,0.11,13.25c0.17,2.32,1.39,3.54,3.31,4.59l10.06,5.71c2.45,1.38,3.54,2.25,6.22,1.24
			c0.95-0.36,1.48-0.7,2.35-1.22l1.89-1.06c0.21-0.11,0.4-0.22,0.63-0.36c0.21-0.12,0.41-0.22,0.64-0.35
			c0.23-0.13,0.4-0.26,0.6-0.38l5.12-2.89c0.84-0.47,1.77-0.89,2.47-1.47c1.18-0.98,1.49-1.36,1.95-2.74
			c0.23-0.68,0.14-0.33,0.17-1.06c0.05-0.97,0.09-2.25,0.12-3.66V52.25z"/>
		<path fill-rule="evenodd" fill="#EE7300" d="M9.33,26.37c-0.12-0.89,0.01-2.29,0.04-3.22c0.04-1.24,0.34-1.78,0.58-2.75
			c0.38-1.49,1.66-3.27,2.43-4.22c0.89-1.09,2.16-2.29,3.53-3.02c5.14-2.75,11.2-2.02,15.12,1.43c2.25,1.98,4.45,5.54,4.59,8.56
			c0.05,1.08,0.03,2.15,0,3.23c-0.06,1.93-1.33,4.33-2.28,5.94c-0.2,0.34-0.52,0.62-0.77,0.94c-1.78,2.31-4.71,4.06-8.51,4.68
			c-3.88,0.63-7.26-0.92-10.04-2.99C11.62,33.17,9.78,29.56,9.33,26.37L9.33,26.37z M22.89,6.33c-7.14,0-13.79,3.87-16.88,10.48
			c-0.94,2.14-1.81,4.7-1.81,7.09v1.98c0,0.81,0.19,1.12,0.24,1.86c0.06,0.77,0.2,1.17,0.4,1.82c0.1,0.31,0.13,0.44,0.25,0.86
			c0.09,0.3,0.21,0.5,0.31,0.8c0.62,1.84,1.94,4.09,3.23,5.53c1.03,1.15,1.62,1.79,2.89,2.66c0.59,0.41,0.36,0.41,1.3,0.92
			c0.25,0.13,0.46,0.26,0.7,0.41l3.06,1.37c2.19,0.63,2.76,0.95,5.7,0.95c2.12,0,4.73-0.37,6.64-1.11c0.23-0.09,0.59-0.28,0.85-0.39
			c2.46-1.05,4.78-2.85,6.49-4.85l1.84-2.48c0.3-0.46,0.54-1.05,0.8-1.54c0.28-0.53,0.46-0.94,0.67-1.55
			c1.07-3.07,1.39-6.1,1.05-8.93C39.61,13.63,32.65,6.85,22.89,6.33z"/>
		<path fill-rule="evenodd" fill="#EE7300" d="M22.4,34.92c1.61,0,3.08-0.25,4.31-0.88c3.5-1.8,5.86-4.63,5.9-9.28
			c0.03-2.98-0.87-5.15-2.83-7.18c-3.47-3.58-9.16-4.08-13.07-1.39c-2.65,1.82-4.43,5.04-4.39,8.45c0.03,2.14,0.53,4.16,1.72,5.82
			C15.93,33.1,18.34,34.92,22.4,34.92z"/>
		<path fill-rule="evenodd" fill="#FFFFFD" d="M48.54,61.26l-0.02-5.63c0.62-0.06,3.2,1.59,3.83,1.98c0.75,0.46,3.25,1.92,4,1.94
			c1.31,0.04,6.9-3.97,7.81-3.93l0.01,4.9c0,1.07-0.15,0.93-1.42,1.63l-6.09,3.44c-0.79,0.24-1.59-0.54-2.19-0.85l-4-2.28
			C49.78,62.08,49.07,61.75,48.54,61.26L48.54,61.26z M50.06,52.23c0.22,0.34,1.08,0.72,1.51,0.96c0.57,0.33,1.03,0.57,1.59,0.88
			c4.21,2.34,1.92,2.41,7.96-0.87c0.49-0.27,1.09-0.56,1.56-0.85c-0.13-0.42-0.66-0.55-1.47-1.06l-4.79-2.68
			C56.13,48.58,50.32,51.9,50.06,52.23L50.06,52.23z M67.61,57.92l0.02-5.32c0-2.18-1.97-2.65-4.24-3.98l-5.37-3.01
			c-0.45-0.26-1.16-0.85-1.91-0.65c-0.73,0.19-1.28,0.58-1.89,0.94c-1.19,0.7-2.39,1.4-3.53,2.01l-3.58,1.99
			c-1.71,0.99-2.04,0.87-2.03,3.44l0,8.42c0.01,1.87,0.99,2.12,2.47,3.01c0.29,0.17,0.57,0.29,0.9,0.46l6.25,3.59
			c2.61,1.43,2.35,0.17,5.65-1.33l3.56-2.07C68.42,63.03,67.61,63.56,67.61,57.92z"/>
		<path fill-rule="evenodd" fill="#FFFFFD" d="M22.4,34.92c-4.06,0-6.47-1.82-8.36-4.46c-1.19-1.65-1.69-3.68-1.72-5.82
			c-0.04-3.41,1.74-6.63,4.39-8.45c3.91-2.68,9.6-2.19,13.07,1.39c1.96,2.03,2.86,4.2,2.83,7.18c-0.04,4.65-2.4,7.47-5.9,9.28
			C25.47,34.67,24.01,34.92,22.4,34.92L22.4,34.92z M9.33,26.37c0.45,3.19,2.29,6.81,4.68,8.57c2.79,2.07,6.17,3.62,10.04,2.99
			c3.8-0.62,6.72-2.37,8.51-4.68c0.25-0.32,0.57-0.6,0.77-0.94c3.64-6.13,3.23-12.84-2.31-17.73c-3.92-3.45-9.98-4.18-15.12-1.43
			c-1.37,0.73-2.64,1.93-3.53,3.02c-0.77,0.95-2.05,2.73-2.43,4.22C9.45,22.33,9.05,24.35,9.33,26.37z"/>
		<path fill-rule="evenodd" fill="#EE7300" d="M23.5,72.77c1.6,0,3.9-0.28,5.47-0.68c0.22-0.06,0.36-0.12,0.65-0.21
			c0.37-0.11,0.76-0.24,1.2-0.41c0.73-0.28,0.7-0.6,0.8,0.3c0.21,1.9,2.77,2.19,3.44,0.26l0.72-2.49c0.54-1.97,1.45-3.34-1.86-4.16
			c-2.15-0.54-3.79-1.63-4.99-0.5c-0.89,0.83-0.66,2.63,0.72,2.95v0.25c-0.26,0.02-2.81,0.79-3.69,0.86
			c-0.62,0.05-3.71,0.1-4.38-0.05c-4.32-0.93-7.86-3.02-10.47-6.66l-1.11-1.98c-1.18-2.67-1.34-3.5-1.55-6.17
			c-0.14-1.7,0.04-3.1,0.43-4.78l0.55-1.8c0.55-1.66,2.4-3.34,1.04-4.67l-0.13-0.12c-1.82-1.58-3,0.81-3.62,2.07
			c-0.82,1.67-1.37,3.26-1.68,5.11c-0.08,0.51-0.22,0.96-0.24,1.49c-0.08,1.91-0.06,4.31,0.37,6.07c0.74,3.06,1.83,5.49,3.76,7.97
			c1.89,2.42,3.86,3.85,6.54,5.29c0.39,0.21,0.69,0.3,1.09,0.51l0.98,0.37c1.36,0.42,1.22,0.48,2.89,0.81L23.5,72.77z"/>
		<path fill-rule="evenodd" fill="#EE7300" d="M41.99,13.87c0,1.01,0.66,1.86,1.63,1.92c0.81,0.06,2.5-1.06,3.66-1.55
			c3.15-1.32,7.36-1.34,10.54-0.21c1.19,0.42,2.2,0.74,3.32,1.49c0.4,0.27,0.78,0.53,1.16,0.81c0.92,0.68,1.72,1.39,2.42,2.26
			c0.8,1,1.26,1.35,1.99,2.83c0.6,1.22,0.71,1.32,1.14,2.69c0.85,2.73,1.05,5.13,0.48,7.96c-0.09,0.45-0.16,0.86-0.29,1.32
			c-0.16,0.57-0.34,0.44-0.34,1.27h-0.25C66.97,32.59,64,33.38,64,34.91c0,0.98,0.48,2.27,0.75,3.2c0.97,3.26,1.04,3.51,4.15,2.73
			c0.41-0.1,2.94-0.81,3.36-1.07c1.01-0.61,1.25-2.1-0.01-3.03c-0.66-0.49-0.76-0.24-1.5-0.22l1.03-3.42
			c0.11-0.38,0.15-0.86,0.22-1.26c0.36-2.11,0.29-4.35-0.15-6.57c-0.08-0.42-0.16-0.77-0.28-1.21C69.94,17.75,63.89,11,57.25,10.03
			c-0.57-0.08-0.61-0.18-1.23-0.24c-2.25-0.24-3.07-0.37-5.28-0.11c-0.39,0.05-0.37,0.06-0.76,0.1l-2.99,0.7
			c-0.04,0.01-0.14,0.05-0.18,0.07l-4.19,2.1C42.26,12.94,41.99,13.22,41.99,13.87z"/>
		<path fill-rule="evenodd" fill="#EE7300" d="M48.54,61.26c0.54,0.49,1.25,0.82,1.93,1.19l4,2.28c0.6,0.31,1.41,1.09,2.19,0.85
			l6.09-3.44c1.27-0.69,1.42-0.56,1.42-1.63l-0.01-4.9c-0.92-0.04-6.5,3.97-7.81,3.93c-0.76-0.02-3.26-1.49-4-1.94
			c-0.62-0.38-3.21-2.04-3.83-1.98L48.54,61.26z"/>
		<path fill-rule="evenodd" fill="#EE7300" d="M50.06,52.23c0.22,0.34,1.08,0.72,1.51,0.96c0.57,0.33,1.03,0.57,1.59,0.88
			c4.21,2.34,1.92,2.41,7.96-0.87c0.49-0.27,1.09-0.56,1.56-0.85c-0.13-0.42-0.66-0.55-1.47-1.06l-4.79-2.68
			C56.13,48.58,50.32,51.9,50.06,52.23z"/>
		<path fill-rule="evenodd" fill="#FBFBFB" d="M17.93,22.16c-0.4,0-0.93-0.06-1.25,0.06c-0.75,0.28-0.74,1.26-0.04,1.54
			c0.28,0.11,0.75,0.03,0.88,0.07c0.2,0.06,0.05,0.02,0.05,0.16v0.98c-0.49,0-0.85-0.06-1.17,0.22c-0.45,0.39-0.39,1.16,0.29,1.4
			c0.31,0.11,0.78,0.07,1.19,0.07c0.72,2.92,3.68,4.97,6.89,3.92c0.73-0.24,1.14-0.58,1.69-1l0.45-0.46
			c0.15-0.15,0.28-0.34,0.41-0.5c0.76-0.93-0.25-1.77-1.09-1.28c-0.19,0.11-0.2,0.16-0.32,0.33c-0.55,0.72-1.46,1.55-2.56,1.55
			c-1.03,0-1.74-0.2-2.43-0.86c-0.81-0.77-0.7-0.91-1.14-1.69c0.6,0,3.85,0.06,4.28-0.06c1.02-0.29,0.74-1.64-0.25-1.64h-4.38
			c0-0.37-0.04-0.79,0.05-1.15l4.55-0.01c0.16-0.03,0.37-0.16,0.47-0.28c0.42-0.49,0.16-1.13-0.37-1.32
			c-0.3-0.11-3.81-0.05-4.29-0.05c0.08-0.15,0.13-0.28,0.21-0.44c0.5-0.94,1.51-1.98,2.73-1.98c2,0,2.24,0.61,3.27,1.69
			c0.68,0.72,2.15-0.19,1.31-1.18c-1.19-1.4-2.3-2.16-4.48-2.16c-1.49,0-2.52,0.68-3.47,1.58c-0.12,0.11-0.16,0.18-0.27,0.3
			c-0.14,0.14-0.37,0.47-0.48,0.65C18.4,21.02,18.04,21.72,17.93,22.16z"/>
	</g>
</g>
<ellipse fill-rule="evenodd" fill="none" cx="5993.95" cy="41.46" rx="53.45" ry="54.47"/>
</svg>
